<svg width="16" height="16" viewBox="0 0 16 16" fill="none" xmlns="http://www.w3.org/2000/svg">
<path d="M15.3107 1.20476e-06H0.689133C0.431248 -0.000474698 0.194826 0.140075 0.0769405 0.363906C-0.0425712 0.590752 -0.0215957 0.863919 0.131087 1.07109L5.48781 8.43296C5.4896 8.43549 5.49155 8.43787 5.49334 8.44041C5.68798 8.69676 5.79318 9.00721 5.79383 9.32638V15.3284C5.79269 15.5063 5.86424 15.677 5.99269 15.8031C6.12115 15.9292 6.29578 15.9999 6.47789 15.9999C6.57057 15.9999 6.66212 15.9818 6.74765 15.9473L9.75772 14.8275C10.0275 14.7472 10.2065 14.4989 10.2065 14.1999V9.32638C10.207 9.00737 10.3123 8.69676 10.5068 8.44041C10.5086 8.43787 10.5106 8.43549 10.5123 8.43296L15.8689 1.07078C16.0216 0.86376 16.0426 0.590752 15.9231 0.363906C15.8052 0.140075 15.5688 -0.000474698 15.3107 1.20476e-06ZM9.8356 7.95928C9.53642 8.35538 9.37463 8.8343 9.37365 9.32638V14.1012L6.62635 15.1232V9.32638C6.62537 8.8343 6.46358 8.35538 6.16423 7.95928L0.963766 0.812205H15.0362L9.8356 7.95928Z" fill="#282F36"/>
</svg>
